<svg version="1.1" id="Layer_1" xmlns="http://www.w3.org/2000/svg" xmlns:xlink="http://www.w3.org/1999/xlink" x="0px" y="0px"
	 width="100%" viewBox="0 0 256 256" enable-background="new 0 0 256 256" xml:space="preserve">
<path fill="#B3B3B3" opacity="1.000000" stroke="none" 
	d="
M246.000000,257.000000 
	C173.979111,257.000000 101.958206,257.000000 29.803272,256.763733 
	C26.891729,253.003082 22.594955,250.319122 23.017763,244.993927 
	C23.381128,240.417450 23.790747,235.839676 24.365028,231.285828 
	C25.855434,219.467422 27.478720,207.665802 28.989286,195.849854 
	C30.109398,187.088135 31.096159,178.309372 32.214886,169.547470 
	C33.432903,160.007889 34.776699,150.484329 35.987675,140.943893 
	C37.100510,132.176651 38.051491,123.388741 39.180313,114.623650 
	C40.388565,105.241760 41.784462,95.883957 42.981537,86.500717 
	C44.119736,77.579041 44.623299,68.540947 46.388916,59.751514 
	C47.137497,56.025017 46.221539,55.062721 43.350929,53.649895 
	C34.964817,49.522495 28.351431,36.817028 30.094692,27.572861 
	C32.229427,16.252790 37.664619,7.168060 49.141605,2.861094 
	C49.596481,2.690392 49.721363,1.640332 50.000000,1.000000 
	C101.354225,1.000000 152.708450,1.000000 204.195816,1.257964 
	C205.354095,2.290472 206.273224,3.317830 207.421280,3.799299 
	C216.096512,7.437510 221.874313,14.021869 224.941803,22.571125 
	C226.825058,27.819864 227.249161,33.627892 228.038239,39.225693 
	C229.472855,49.403053 230.780151,59.600494 231.974228,69.809013 
	C233.114639,79.558784 233.948944,89.344376 235.090790,99.093964 
	C236.286667,109.304779 237.779510,119.480812 238.973999,129.691757 
	C240.114532,139.441528 240.968384,149.224609 242.075577,158.978577 
	C243.308807,169.842743 244.720444,180.686554 245.987091,191.547073 
	C246.744263,198.039215 247.301697,204.554840 248.074493,211.044968 
	C249.328995,221.580490 250.707764,232.101166 251.992004,242.633224 
	C252.664749,248.150513 250.749329,252.511353 246.038818,255.602402 
	C245.816086,255.748550 246.003571,256.519836 246.000000,257.000000 
M173.999008,238.298843 
	C175.005997,229.365005 175.971405,220.426208 177.032196,211.498764 
	C178.014801,203.229431 179.058426,194.966827 180.149948,186.711136 
	C181.389984,177.332153 182.788010,167.973648 183.978348,158.588623 
	C185.109558,149.669785 185.983521,140.718307 187.113266,131.799255 
	C188.322281,122.254204 189.701859,112.730804 190.999863,103.196976 
	C192.254776,93.979446 193.546066,84.766548 194.735245,75.540512 
	C195.606171,68.783722 196.337753,62.008972 197.067322,55.788872 
	C191.894791,56.220436 187.218399,56.938976 182.540421,56.949379 
	C142.231461,57.039009 101.922180,57.000904 61.612999,57.000904 
	C59.832302,57.000904 58.051605,57.000900 56.465965,57.000900 
	C55.260647,65.967964 54.051113,74.363663 53.022579,82.781494 
	C51.911438,91.875465 51.073017,101.003166 49.928345,110.092560 
	C48.378868,122.396393 46.598476,134.671005 45.017521,146.971054 
	C43.892567,155.723328 43.037739,164.510788 41.873951,173.257477 
	C40.346684,184.735977 38.588776,196.183594 37.014889,207.656143 
	C35.639191,217.684021 33.925941,227.695526 33.206280,237.774551 
	C32.563221,246.780746 31.183231,248.074707 41.497860,248.046127 
	C81.640167,247.934906 121.782967,248.000809 161.925583,248.000809 
	C171.234222,248.000809 171.234222,248.000778 173.999008,238.298843 
M192.662720,18.999838 
	C205.389206,19.326469 210.282715,30.239056 208.912521,41.059326 
	C207.396698,53.029625 205.545807,64.957497 204.030518,76.927856 
	C202.550247,88.621407 201.438370,100.361938 199.926422,112.051025 
	C198.441116,123.533928 196.505630,134.958908 195.044052,146.444473 
	C193.515701,158.454788 192.483444,170.528503 190.935547,182.535980 
	C188.443161,201.870026 185.705505,221.172455 183.013794,240.911240 
	C191.015137,234.824875 198.667053,229.035736 206.280106,223.195999 
	C208.882950,221.199417 210.119370,218.800385 210.102951,215.187088 
	C209.934708,178.199600 209.994705,141.211075 210.005920,104.222832 
	C210.007431,99.259995 211.595047,97.839523 215.818039,99.057678 
	C219.126694,100.012085 219.026779,102.710159 219.024109,105.468285 
	C218.988205,142.456497 218.966080,179.444855 219.090515,216.432693 
	C219.097473,218.494949 219.896484,221.010391 221.229080,222.516663 
	C223.932983,225.572906 227.226593,228.115128 230.330124,230.808136 
	C233.960007,233.957901 237.646439,237.042511 242.367477,241.055756 
	C241.450134,234.332504 240.657791,229.044037 240.018127,223.737167 
	C238.316330,209.618805 236.679581,195.492615 235.018356,181.369370 
	C233.012421,164.315369 230.990173,147.263260 229.007675,130.206543 
	C226.986298,112.815659 225.014023,95.419083 223.002579,78.027046 
	C221.349976,63.737823 219.264755,49.483746 218.132278,35.153950 
	C217.214417,23.539665 208.726852,13.261449 197.314590,10.459905 
	C191.312988,8.986599 179.938080,13.234034 176.316574,18.254581 
	C171.117996,25.461403 170.591675,33.683887 175.251450,40.524185 
	C178.824951,45.769913 184.079605,48.073803 190.293045,46.898438 
	C195.447937,45.923317 198.237213,42.074215 199.362579,37.096642 
	C200.197220,33.404881 198.278275,30.553520 195.252243,29.287296 
	C192.313736,28.057699 189.892670,28.994614 189.681992,33.207169 
	C189.631470,34.217113 186.364426,35.822742 184.643036,35.741882 
	C183.374069,35.682278 181.405548,33.466736 181.141998,31.967001 
	C179.922089,25.024595 182.652176,21.924671 192.662720,18.999838 
M133.500000,9.999188 
	C109.670120,9.999239 85.840240,9.994095 62.010365,10.001725 
	C51.494976,10.005092 43.125759,16.310179 40.286858,26.282200 
	C37.502296,36.063335 46.635933,47.500378 55.842422,47.304958 
	C91.321274,46.551884 126.825600,46.999241 162.320435,46.999100 
	C164.037384,46.999092 165.754333,46.999100 167.565918,46.999100 
	C160.181137,33.936745 161.524277,21.953726 169.847122,9.999188 
	C157.726257,9.999188 146.113129,9.999188 133.500000,9.999188 
M224.361420,238.049347 
	C221.915451,235.868042 219.618500,233.474609 216.954651,231.603516 
	C215.790207,230.785553 213.311234,230.257919 212.390457,230.925095 
	C205.206299,236.130447 198.256149,241.658752 190.388260,247.740906 
	C205.878342,247.740906 220.147690,247.740906 234.658340,247.740906 
	C231.251602,244.482101 228.101501,241.468796 224.361420,238.049347 
z"/>
<path fill="#000000" opacity="1.000000" stroke="none" 
	d="
M49.531342,1.000000 
	C49.721363,1.640332 49.596481,2.690392 49.141605,2.861094 
	C37.664619,7.168060 32.229427,16.252790 30.094692,27.572861 
	C28.351431,36.817028 34.964817,49.522495 43.350929,53.649895 
	C46.221539,55.062721 47.137497,56.025017 46.388916,59.751514 
	C44.623299,68.540947 44.119736,77.579041 42.981537,86.500717 
	C41.784462,95.883957 40.388565,105.241760 39.180313,114.623650 
	C38.051491,123.388741 37.100510,132.176651 35.987675,140.943893 
	C34.776699,150.484329 33.432903,160.007889 32.214886,169.547470 
	C31.096159,178.309372 30.109398,187.088135 28.989286,195.849854 
	C27.478720,207.665802 25.855434,219.467422 24.365028,231.285828 
	C23.790747,235.839676 23.381128,240.417450 23.017763,244.993927 
	C22.594955,250.319122 26.891729,253.003082 29.334616,256.763733 
	C19.678940,257.000000 10.357882,257.000000 1.062933,257.000000 
	C1.062933,171.666641 1.062933,86.333298 1.062933,1.000000 
	C17.104805,1.000000 33.083744,1.000000 49.531342,1.000000 
z"/>
<path fill="#000000" opacity="1.000000" stroke="none" 
	d="
M246.482956,257.000000 
	C246.003571,256.519836 245.816086,255.748550 246.038818,255.602402 
	C250.749329,252.511353 252.664749,248.150513 251.992004,242.633224 
	C250.707764,232.101166 249.328995,221.580490 248.074493,211.044968 
	C247.301697,204.554840 246.744263,198.039215 245.987091,191.547073 
	C244.720444,180.686554 243.308807,169.842743 242.075577,158.978577 
	C240.968384,149.224609 240.114532,139.441528 238.973999,129.691757 
	C237.779510,119.480812 236.286667,109.304779 235.090790,99.093964 
	C233.948944,89.344376 233.114639,79.558784 231.974228,69.809013 
	C230.780151,59.600494 229.472855,49.403053 228.038239,39.225693 
	C227.249161,33.627892 226.825058,27.819864 224.941803,22.571125 
	C221.874313,14.021869 216.096512,7.437510 207.421280,3.799299 
	C206.273224,3.317830 205.354095,2.290472 204.664474,1.257964 
	C222.307983,1.000000 239.615967,1.000000 256.961975,1.000000 
	C256.961975,86.333328 256.961975,171.666656 256.956604,257.000000 
	C253.622787,257.000000 250.294357,257.000000 246.482956,257.000000 
z"/>
<path fill="#000000" opacity="1.000000" stroke="none" 
	d="
M173.996155,238.744568 
	C171.234222,248.000778 171.234222,248.000809 161.925583,248.000809 
	C121.782967,248.000809 81.640167,247.934906 41.497860,248.046127 
	C31.183231,248.074707 32.563221,246.780746 33.206280,237.774551 
	C33.925941,227.695526 35.639191,217.684021 37.014889,207.656143 
	C38.588776,196.183594 40.346684,184.735977 41.873951,173.257477 
	C43.037739,164.510788 43.892567,155.723328 45.017521,146.971054 
	C46.598476,134.671005 48.378868,122.396393 49.928345,110.092560 
	C51.073017,101.003166 51.911438,91.875465 53.022579,82.781494 
	C54.051113,74.363663 55.260647,65.967964 56.465965,57.000900 
	C58.051605,57.000900 59.832302,57.000904 61.612999,57.000904 
	C101.922180,57.000904 142.231461,57.039009 182.540421,56.949379 
	C187.218399,56.938976 191.894791,56.220436 197.067322,55.788872 
	C196.337753,62.008972 195.606171,68.783722 194.735245,75.540512 
	C193.546066,84.766548 192.254776,93.979446 190.999863,103.196976 
	C189.701859,112.730804 188.322281,122.254204 187.113266,131.799255 
	C185.983521,140.718307 185.109558,149.669785 183.978348,158.588623 
	C182.788010,167.973648 181.389984,177.332153 180.149948,186.711136 
	C179.058426,194.966827 178.014801,203.229431 177.032196,211.498764 
	C175.971405,220.426208 175.005997,229.365005 173.996155,238.744568 
M73.467064,230.999695 
	C66.168991,230.999695 58.870922,230.999695 51.397511,230.999695 
	C52.538662,222.714645 53.948555,214.740616 54.501534,206.707611 
	C54.623875,204.930435 51.716309,202.944687 50.203888,201.054977 
	C48.478962,202.442276 45.520439,203.612122 45.231285,205.252518 
	C43.483158,215.169708 42.261398,225.184326 41.051498,235.189087 
	C40.658508,238.438782 42.517818,240.016815 45.804012,240.009766 
	C57.933735,239.983795 70.068291,240.161789 82.187721,239.807648 
	C83.827469,239.759720 86.517815,237.268127 86.732445,235.645020 
	C87.073463,233.066086 85.504669,230.649399 81.926849,230.959015 
	C79.452965,231.173111 76.945572,230.999863 73.467064,230.999695 
z"/>
<path fill="#000000" opacity="1.000000" stroke="none" 
	d="
M192.240982,19.001068 
	C182.652176,21.924671 179.922089,25.024595 181.141998,31.967001 
	C181.405548,33.466736 183.374069,35.682278 184.643036,35.741882 
	C186.364426,35.822742 189.631470,34.217113 189.681992,33.207169 
	C189.892670,28.994614 192.313736,28.057699 195.252243,29.287296 
	C198.278275,30.553520 200.197220,33.404881 199.362579,37.096642 
	C198.237213,42.074215 195.447937,45.923317 190.293045,46.898438 
	C184.079605,48.073803 178.824951,45.769913 175.251450,40.524185 
	C170.591675,33.683887 171.117996,25.461403 176.316574,18.254581 
	C179.938080,13.234034 191.312988,8.986599 197.314590,10.459905 
	C208.726852,13.261449 217.214417,23.539665 218.132278,35.153950 
	C219.264755,49.483746 221.349976,63.737823 223.002579,78.027046 
	C225.014023,95.419083 226.986298,112.815659 229.007675,130.206543 
	C230.990173,147.263260 233.012421,164.315369 235.018356,181.369370 
	C236.679581,195.492615 238.316330,209.618805 240.018127,223.737167 
	C240.657791,229.044037 241.450134,234.332504 242.367477,241.055756 
	C237.646439,237.042511 233.960007,233.957901 230.330124,230.808136 
	C227.226593,228.115128 223.932983,225.572906 221.229080,222.516663 
	C219.896484,221.010391 219.097473,218.494949 219.090515,216.432693 
	C218.966080,179.444855 218.988205,142.456497 219.024109,105.468285 
	C219.026779,102.710159 219.126694,100.012085 215.818039,99.057678 
	C211.595047,97.839523 210.007431,99.259995 210.005920,104.222832 
	C209.994705,141.211075 209.934708,178.199600 210.102951,215.187088 
	C210.119370,218.800385 208.882950,221.199417 206.280106,223.195999 
	C198.667053,229.035736 191.015137,234.824875 183.013794,240.911240 
	C185.705505,221.172455 188.443161,201.870026 190.935547,182.535980 
	C192.483444,170.528503 193.515701,158.454788 195.044052,146.444473 
	C196.505630,134.958908 198.441116,123.533928 199.926422,112.051025 
	C201.438370,100.361938 202.550247,88.621407 204.030518,76.927856 
	C205.545807,64.957497 207.396698,53.029625 208.912521,41.059326 
	C210.282715,30.239056 205.389206,19.326469 192.240982,19.001068 
z"/>
<path fill="#000000" opacity="1.000000" stroke="none" 
	d="
M134.000000,9.999188 
	C146.113129,9.999188 157.726257,9.999188 169.847122,9.999188 
	C161.524277,21.953726 160.181137,33.936745 167.565918,46.999100 
	C165.754333,46.999100 164.037384,46.999092 162.320435,46.999100 
	C126.825600,46.999241 91.321274,46.551884 55.842422,47.304958 
	C46.635933,47.500378 37.502296,36.063335 40.286858,26.282200 
	C43.125759,16.310179 51.494976,10.005092 62.010365,10.001725 
	C85.840240,9.994095 109.670120,9.999239 134.000000,9.999188 
z"/>
<path fill="#000000" opacity="1.000000" stroke="none" 
	d="
M224.656403,238.252411 
	C228.101501,241.468796 231.251602,244.482101 234.658340,247.740906 
	C220.147690,247.740906 205.878342,247.740906 190.388260,247.740906 
	C198.256149,241.658752 205.206299,236.130447 212.390457,230.925095 
	C213.311234,230.257919 215.790207,230.785553 216.954651,231.603516 
	C219.618500,233.474609 221.915451,235.868042 224.656403,238.252411 
z"/>
<path fill="#B3B3B3" opacity="1.000000" stroke="none" 
	d="
M73.960106,230.999695 
	C76.945572,230.999863 79.452965,231.173111 81.926849,230.959015 
	C85.504669,230.649399 87.073463,233.066086 86.732445,235.645020 
	C86.517815,237.268127 83.827469,239.759720 82.187721,239.807648 
	C70.068291,240.161789 57.933735,239.983795 45.804012,240.009766 
	C42.517818,240.016815 40.658508,238.438782 41.051498,235.189087 
	C42.261398,225.184326 43.483158,215.169708 45.231285,205.252518 
	C45.520439,203.612122 48.478962,202.442276 50.203888,201.054977 
	C51.716309,202.944687 54.623875,204.930435 54.501534,206.707611 
	C53.948555,214.740616 52.538662,222.714645 51.397511,230.999695 
	C58.870922,230.999695 66.168991,230.999695 73.960106,230.999695 
z"/>
</svg>