<svg xmlns="http://www.w3.org/2000/svg" width="20.587" height="20.588" viewBox="0 0 20.587 20.588"><defs><style>.a{fill:#fff;}</style></defs><path class="a" d="M489.367,479.563H471.052a1.136,1.136,0,0,0-1.136,1.136v18.315a1.136,1.136,0,0,0,1.136,1.136h9.86v-7.972h-2.683v-3.107h2.683v-2.291a3.744,3.744,0,0,1,4-4.107,22.021,22.021,0,0,1,2.4.122v2.779h-1.645c-1.29,0-1.54.613-1.54,1.513v1.984H487.2l-.4,3.107h-2.676v7.972h5.246a1.136,1.136,0,0,0,1.136-1.136V480.7A1.136,1.136,0,0,0,489.367,479.563Z" transform="translate(-469.916 -479.562)"/></svg>