<?xml version="1.0" encoding="UTF-8"?>
<svg id="Capa_1" xmlns="http://www.w3.org/2000/svg" xmlns:xlink="http://www.w3.org/1999/xlink" viewBox="0 0 284 279.5">
  <defs>
    <style>
      .cls-1{fill:#fff;}.cls-2{fill:#011e41;}.cls-2,.cls-3,.cls-4{fill-rule:evenodd;}.cls-3{fill:#ec6608;}.cls-5{clip-path:url(#clippath);}.cls-4{fill:#ff671d;}.cls-6{fill:none;}
    </style>
    <clipPath id="clippath">
      <path class="cls-6"
            d="M61.66,13.89c-25.62,0-46.59,20.96-46.59,46.58V222.42c0,7.28,1.7,14.18,4.71,20.34,7.58,15.51,23.54,26.25,41.88,26.25H223.61c18.34,0,34.29-10.74,41.88-26.25,3.01-6.15,4.71-13.06,4.71-20.34V60.47c0-25.62-20.96-46.58-46.59-46.58H61.66Z"/>
    </clipPath>
  </defs>
  <g class="cls-5">
    <polygon class="cls-2" points="-588.43 13.89 543.92 13.89 543.95 243.49 -588.42 243.39 -588.43 13.89"/>
    <polygon class="cls-4" points="543.95 243.53 -588.44 243.49 -588.43 269 543.95 269 543.95 243.53"/>
    <path class="cls-1"
          d="M142.63,136L73.74,67.82l-23.12,136.1h47.83s6.67-43.86,7.03-49.28l37.15,32.32,37.14-32.31c.37,5.41,7.04,49.28,7.04,49.28h47.84s-23.14-136.1-23.14-136.1l-68.88,68.17Z"/>
    <polygon class="cls-3" points="208.72 53.45 76.53 53.44 142.59 118.9 208.72 53.45"/>
  </g>
  <path class="cls-1"
        d="M223.61,13.89c25.62,0,46.58,20.96,46.58,46.59V222.42c0,7.28-1.7,14.18-4.71,20.34-7.58,15.5-23.54,26.25-41.88,26.25H61.66c-18.34,0-34.29-10.74-41.88-26.25-3.01-6.15-4.71-13.06-4.71-20.34V60.47c0-25.62,20.96-46.59,46.59-46.59H223.61Zm0-5.1H61.66c-28.5,0-51.69,23.19-51.69,51.69V222.42c0,7.89,1.76,15.49,5.23,22.58,4.2,8.58,10.68,15.84,18.74,20.99,8.3,5.31,17.88,8.11,27.72,8.11H223.61c9.84,0,19.42-2.81,27.72-8.11,8.06-5.16,14.54-12.42,18.74-20.99,3.47-7.09,5.23-14.69,5.23-22.58V60.47c0-28.5-23.19-51.69-51.69-51.69"/>
</svg>
