<svg xmlns="http://www.w3.org/2000/svg" id="Capa_1" data-name="Capa 1" viewBox="0 0 512 512">
  <defs>
    <style>.cls-1{fill:#FF671F}</style>
  </defs>
  <path
    d="M393.08 134.85v355.4c0 2.57-2.7 4.75-5.89 4.75H124.82c-3.2 0-5.9-2.18-5.9-4.75v-355.4h274.16m33.7-17H85.25v21.33h16.67v351.07c0 12 10.26 21.75 22.9 21.75h262.37c12.64 0 22.89-9.74 22.89-21.75V139.18h16.7z"
    class="cls-1"/>
  <path
    d="M94 72.1l103-8.56-1.76-21.62A25.88 25.88 0 01218.85 14l65.32-5.43c.72-.06 1.46-.09 2.18-.09a26 26 0 0125.72 23.71l1.79 21.63 103.53-8.6.65 5.85L94.61 78zm192.31-57.7a12.93 12.93 0 00-1.65.07l-65.34 5.42a20 20 0 00-18.23 21.53l1.79 21.64L308 54.33l-1.75-21.63a20.08 20.08 0 00-19.94-18.3z"
    style="fill:#fff"/>
  <path
    d="M286.35 0a22.65 22.65 0 00-2.87.12l-65.34 5.42a34.41 34.41 0 00-31.39 37.08l1.08 13.15-103.28 8.59 2.52 22.74 340.38-28.26-2.51-22.75-103.3 8.57-1.1-13.15A34.41 34.41 0 00286.35 0zm-75.69 53.88l-1.09-13.16A11.49 11.49 0 01220 28.36l65.32-5.42h.95a11.49 11.49 0 0111.42 10.5l1.09 13.16-88.16 7.32zM156.25 158.9a9 9 0 019 9v277.33a9 9 0 01-9 9h-1.56a9 9 0 01-9-9V167.9a9 9 0 019-9h1.56m0-16h-1.56a25 25 0 00-25 25v277.33a25 25 0 0025 25h1.56a25 25 0 0025-25V167.9a25 25 0 00-25-25zM223.25 158.9a9 9 0 019 9v277.33a9 9 0 01-9 9h-1.56a9 9 0 01-9-9V167.9a9 9 0 019-9h1.56m0-16h-1.56a25 25 0 00-25 25v277.33a25 25 0 0025 25h1.56a25 25 0 0025-25V167.9a25 25 0 00-25-25zM290.25 158.9a9 9 0 019 9v277.33a9 9 0 01-9 9h-1.56a9 9 0 01-9-9V167.9a9 9 0 019-9h1.56m0-16h-1.56a25 25 0 00-25 25v277.33a25 25 0 0025 25h1.56a25 25 0 0025-25V167.9a25 25 0 00-25-25zM357.29 158.9a9 9 0 019 9v277.33a9 9 0 01-9 9h-1.57a9 9 0 01-9-9V167.9a9 9 0 019-9h1.57m0-16h-1.57a25 25 0 00-25 25v277.33a25 25 0 0025 25h1.57a25 25 0 0025-25V167.9a25 25 0 00-25-25z"
    class="cls-1"/>
</svg>
