<svg xmlns="http://www.w3.org/2000/svg" width="20.596" height="20.595" viewBox="0 0 20.596 20.595"><defs><style>.a{fill:#fff;}</style></defs><path class="a" d="M-879.747-157.716h-15.446a2.575,2.575,0,0,0-2.574,2.574V-139.7a2.575,2.575,0,0,0,2.574,2.574h15.446a2.575,2.575,0,0,0,2.574-2.574v-15.446A2.575,2.575,0,0,0-879.747-157.716Zm-2.605,7.677c.005.113.005.227.005.34a7.463,7.463,0,0,1-7.512,7.512,7.51,7.51,0,0,1-4.042-1.179,5.085,5.085,0,0,0,.628.036,5.3,5.3,0,0,0,3.28-1.133,2.64,2.64,0,0,1-2.466-1.833,2.593,2.593,0,0,0,.494.046,2.575,2.575,0,0,0,.7-.093,2.646,2.646,0,0,1-2.116-2.59v-.036a2.671,2.671,0,0,0,1.194.33,2.648,2.648,0,0,1-1.174-2.2,2.641,2.641,0,0,1,.355-1.328,7.5,7.5,0,0,0,5.442,2.76,2.913,2.913,0,0,1-.067-.6,2.643,2.643,0,0,1,2.641-2.641,2.635,2.635,0,0,1,1.926.834,5.253,5.253,0,0,0,1.678-.638,2.657,2.657,0,0,1-1.164,1.462,5.352,5.352,0,0,0,1.519-.417A5.379,5.379,0,0,1-882.352-150.039Z" transform="translate(897.768 157.716)"/></svg>