<svg xmlns="http://www.w3.org/2000/svg" width="27.203" height="19.042" viewBox="0 0 27.203 19.042"><defs><style>.a{fill:#fff;}</style></defs><path class="a" d="M17.1-304.993a3.407,3.407,0,0,0-2.405-2.4c-2.121-.569-10.628-.569-10.628-.569s-8.507,0-10.628.569a3.407,3.407,0,0,0-2.405,2.4,35.409,35.409,0,0,0-.568,6.548,35.407,35.407,0,0,0,.568,6.548,3.407,3.407,0,0,0,2.405,2.405c2.121.568,10.628.568,10.628.568s8.507,0,10.628-.568A3.407,3.407,0,0,0,17.1-291.9a35.407,35.407,0,0,0,.568-6.548A35.409,35.409,0,0,0,17.1-304.993ZM1.342-294.365v-8.161l7.067,4.081Z" transform="translate(9.539 307.967)"/></svg>